<?xml version="1.0" encoding="UTF-8" standalone="no"?>
<!DOCTYPE svg PUBLIC "-//W3C//DTD SVG 1.1//EN" "http://www.w3.org/Graphics/SVG/1.1/DTD/svg11.dtd">
<svg t="1553219528553" class="icon" style="" viewBox="0 0 1024 1024" version="1.1" xmlns="http://www.w3.org/2000/svg" p-id="1160" xmlns:xlink="http://www.w3.org/1999/xlink">
    <defs>
        <style type="text/css">html, * {  }</style>
    </defs>
    <path d="M793.3 958.8h-561c-91.8 0-166.9-75.1-166.9-166.9V230.8c0-91.8 75.1-166.9 166.9-166.9h561.1c91.8 0 166.9 75.1 166.9 166.9v561c-0.1 91.9-75.2 167-167 167z" fill="#FC6363" p-id="1161"></path>
    <path d="M811 198.2m-42.1 0a42.1 42.1 0 1 0 84.2 0 42.1 42.1 0 1 0-84.2 0Z" fill="#FFFFFF" p-id="1162"></path>
    <path d="M349.5 292.4v306.1c0 43.8 15.7 65.7 47.2 65.7 13.4 0 24.8-4.6 34.2-13.7 9.3-9.1 14-20.2 14-33.2 0-13.4-4.4-24.7-13.2-33.8-8.8-9.1-19.6-13.7-32.3-13.7h-0.3c-16.7 0.1-30.8-12.2-30.8-28.9v-64.4c0-18.1 14.7-32.8 32.8-32.8h0.2c46.9 0 87 17.1 120.3 51.2 31.4 32.2 48.7 74.9 48.6 119.9 0 48.1-16.9 88.6-50.5 121.6-33.7 33-75 49.5-124.1 49.5-24.6 0-48.7-5.4-72.1-16.2s-42.7-25.3-57.9-43.6C239.2 694.4 226 653.4 226 603V415.8c0.1-68.1 55.4-123.4 123.5-123.4zM734.3 292.4v148.1c0 8 6.5 14.5 14.5 14.5h33.8c8 0 14.4 6.5 14.4 14.4V571c0 8-6.4 14.4-14.4 14.4h-33.2c-8.6 0-15.2 7.4-14.5 16 1.4 17.7 5.3 30.4 11.8 38.2 6.6 7.9 24.8 12.6 40.2 14.2 7.2 0.8 12.5 7.1 12.5 14.3v102.2c0 7.8-6.3 14.2-14.1 14.2h-0.1c-27.9 0-61.6-6.5-86.3-19.5-24.8-13-44.6-30.6-59.6-52.8-18.9-28.4-28.4-66-28.4-112.9V415.9c0-68.2 55.3-123.5 123.4-123.5z" fill="#FBFFFF" p-id="1163"></path>
</svg>